ISO-10303-21;
HEADER;

/******************************************************************************************
* STEP Physical File produced by: The EXPRESS Data Manager Version 5.02.0100.07 : 28 Aug 2013
* Module:                         EDMstepFileFactory/EDMstandAlone
* Creation date:                  Fri Sep 25 10:45:37 2026
* Host:                           DESKTOP-EBN8J90
* Database:                       C:\Users\GAME\AppData\Local\Temp\630899e7-8eb7-4c22-a6b0-d7900f1b6004\0a5ee402-5314-4e69-aa6e-7e92a44cc893\ifc
* Database version:               5507
* Database creation date:         Fri Sep 25 10:45:37 2026
* Schema:                         IFC2X3
* Model:                          DataRepository.ifc
* Model creation date:            Fri Sep 25 10:45:37 2026
* Header model:                   DataRepository.ifc_HeaderModel
* Header model creation date:     Fri Sep 25 10:45:37 2026
* EDMuser:                        sdai-user
* EDMgroup:                       sdai-group
* License ID and type:            5605 : Permanent license. Expiry date: 
* EDMstepFileFactory options:     020000
******************************************************************************************/
FILE_DESCRIPTION(('ViewDefinition [CoordinationView, QuantityTakeOffAddOnView]','ExchangeRequirement []'),'2;1');
FILE_NAME('\X2\041D043E043C04350440\X0\ \X2\043F0440043E0435043A04420430\X0\','2026-09-25T10:45:37',(''),(''),'The EXPRESS Data Manager Version 5.02.0100.07 : 28 Aug 2013','22.0.2.392 - Exporter 22.0.2.392 - Default UI','');
FILE_SCHEMA(('IFC2X3'));
ENDSEC;

DATA;
#1= IFCORGANIZATION($,'Autodesk Revit 2022 (RUS)',$,$,$);
#5= IFCAPPLICATION(#1,'2022','Autodesk Revit 2022 (RUS)','Revit');
#6= IFCCARTESIANPOINT((0.,0.,0.));
#9= IFCCARTESIANPOINT((0.,0.));
#11= IFCDIRECTION((1.,0.,0.));
#13= IFCDIRECTION((-1.,0.,0.));
#15= IFCDIRECTION((0.,1.,0.));
#17= IFCDIRECTION((0.,-1.,0.));
#19= IFCDIRECTION((0.,0.,1.));
#21= IFCDIRECTION((0.,0.,-1.));
#23= IFCDIRECTION((1.,0.));
#25= IFCDIRECTION((-1.,0.));
#27= IFCDIRECTION((0.,1.));
#29= IFCDIRECTION((0.,-1.));
#31= IFCAXIS2PLACEMENT3D(#6,$,$);
#32= IFCLOCALPLACEMENT(#151,#31);
#35= IFCPERSON($,'','GAME',$,$,$,$,$);
#37= IFCORGANIZATION($,'','',$,$);
#38= IFCPERSONANDORGANIZATION(#35,#37,$);
#41= IFCOWNERHISTORY(#38,#5,$,.NOCHANGE.,$,$,$,1790322336);
#42= IFCSIUNIT(*,.LENGTHUNIT.,.MILLI.,.METRE.);
#43= IFCSIUNIT(*,.LENGTHUNIT.,$,.METRE.);
#44= IFCSIUNIT(*,.AREAUNIT.,$,.SQUARE_METRE.);
#45= IFCSIUNIT(*,.VOLUMEUNIT.,$,.CUBIC_METRE.);
#46= IFCSIUNIT(*,.PLANEANGLEUNIT.,$,.RADIAN.);
#47= IFCDIMENSIONALEXPONENTS(0,0,0,0,0,0,0);
#48= IFCMEASUREWITHUNIT(IFCRATIOMEASURE(0.0174532925199433),#46);
#49= IFCCONVERSIONBASEDUNIT(#47,.PLANEANGLEUNIT.,'DEGREE',#48);
#50= IFCSIUNIT(*,.MASSUNIT.,.KILO.,.GRAM.);
#51= IFCDERIVEDUNITELEMENT(#50,1);
#52= IFCDERIVEDUNITELEMENT(#43,-3);
#53= IFCDERIVEDUNIT((#51,#52),.MASSDENSITYUNIT.,$);
#55= IFCDERIVEDUNITELEMENT(#43,4);
#56= IFCDERIVEDUNIT((#55),.MOMENTOFINERTIAUNIT.,$);
#58= IFCSIUNIT(*,.TIMEUNIT.,$,.SECOND.);
#59= IFCSIUNIT(*,.FREQUENCYUNIT.,$,.HERTZ.);
#60= IFCSIUNIT(*,.THERMODYNAMICTEMPERATUREUNIT.,$,.KELVIN.);
#61= IFCSIUNIT(*,.THERMODYNAMICTEMPERATUREUNIT.,$,.DEGREE_CELSIUS.);
#62= IFCDERIVEDUNITELEMENT(#50,1);
#63= IFCDERIVEDUNITELEMENT(#60,-1);
#64= IFCDERIVEDUNITELEMENT(#58,-3);
#65= IFCDERIVEDUNIT((#62,#63,#64),.THERMALTRANSMITTANCEUNIT.,$);
#67= IFCSIUNIT(*,.LENGTHUNIT.,.DECI.,.METRE.);
#68= IFCDERIVEDUNITELEMENT(#43,3);
#69= IFCDERIVEDUNITELEMENT(#58,-1);
#70= IFCDERIVEDUNIT((#68,#69),.VOLUMETRICFLOWRATEUNIT.,$);
#72= IFCSIUNIT(*,.ELECTRICCURRENTUNIT.,$,.AMPERE.);
#73= IFCSIUNIT(*,.ELECTRICVOLTAGEUNIT.,$,.VOLT.);
#74= IFCSIUNIT(*,.POWERUNIT.,$,.WATT.);
#75= IFCSIUNIT(*,.FORCEUNIT.,.KILO.,.NEWTON.);
#76= IFCSIUNIT(*,.ILLUMINANCEUNIT.,$,.LUX.);
#77= IFCSIUNIT(*,.LUMINOUSFLUXUNIT.,$,.LUMEN.);
#78= IFCSIUNIT(*,.LUMINOUSINTENSITYUNIT.,$,.CANDELA.);
#79= IFCDERIVEDUNITELEMENT(#50,-1);
#80= IFCDERIVEDUNITELEMENT(#43,-2);
#81= IFCDERIVEDUNITELEMENT(#58,3);
#82= IFCDERIVEDUNITELEMENT(#77,1);
#83= IFCDERIVEDUNIT((#79,#80,#81,#82),.USERDEFINED.,'Luminous Efficacy');
#85= IFCDERIVEDUNITELEMENT(#43,1);
#86= IFCDERIVEDUNITELEMENT(#58,-1);
#87= IFCDERIVEDUNIT((#85,#86),.LINEARVELOCITYUNIT.,$);
#89= IFCSIUNIT(*,.PRESSUREUNIT.,$,.PASCAL.);
#90= IFCDERIVEDUNITELEMENT(#43,-2);
#91= IFCDERIVEDUNITELEMENT(#50,1);
#92= IFCDERIVEDUNITELEMENT(#58,-2);
#93= IFCDERIVEDUNIT((#90,#91,#92),.USERDEFINED.,'Friction Loss');
#95= IFCDERIVEDUNITELEMENT(#50,1);
#96= IFCDERIVEDUNITELEMENT(#43,1);
#97= IFCDERIVEDUNITELEMENT(#58,-2);
#98= IFCDERIVEDUNITELEMENT(#43,-1);
#99= IFCDERIVEDUNIT((#95,#96,#97,#98),.LINEARFORCEUNIT.,$);
#101= IFCDERIVEDUNITELEMENT(#50,1);
#102= IFCDERIVEDUNITELEMENT(#43,1);
#103= IFCDERIVEDUNITELEMENT(#58,-2);
#104= IFCDERIVEDUNITELEMENT(#43,-2);
#105= IFCDERIVEDUNIT((#101,#102,#103,#104),.PLANARFORCEUNIT.,$);
#107= IFCUNITASSIGNMENT((#42,#44,#45,#49,#50,#53,#56,#58,#59,#61,#65,#70,#72,#73,#74,#75,#76,#77,#78,#83,#87,#89,#93,#99,#105));
#109= IFCAXIS2PLACEMENT3D(#6,$,$);
#110= IFCDIRECTION((6.12303176911189E-17,1.));
#112= IFCGEOMETRICREPRESENTATIONCONTEXT($,'Model',3,0.01,#109,#110);
#115= IFCGEOMETRICREPRESENTATIONSUBCONTEXT('Axis','Model',*,*,*,*,#112,$,.GRAPH_VIEW.,$);
#117= IFCGEOMETRICREPRESENTATIONSUBCONTEXT('Body','Model',*,*,*,*,#112,$,.MODEL_VIEW.,$);
#118= IFCGEOMETRICREPRESENTATIONSUBCONTEXT('Box','Model',*,*,*,*,#112,$,.MODEL_VIEW.,$);
#119= IFCGEOMETRICREPRESENTATIONSUBCONTEXT('FootPrint','Model',*,*,*,*,#112,$,.MODEL_VIEW.,$);
#120= IFCGEOMETRICREPRESENTATIONCONTEXT($,'Plan',3,0.01,#109,#110);
#121= IFCGEOMETRICREPRESENTATIONSUBCONTEXT($,'Annotation',*,*,*,*,#120,0.01,.PLAN_VIEW.,$);
#123= IFCPROJECT('2O5hOKN$bC4ALcH8yLXqY2',#41,'\X2\041D043E043C04350440\X0\ \X2\043F0440043E0435043A04420430\X0\',$,$,'\X2\041D04300438043C0435043D043E04320430043D04380435\X0\ \X2\043F0440043E0435043A04420430\X0\','\X2\042104420430044204430441\X0\ \X2\043F0440043E0435043A04420430\X0\',(#112,#120),#107);
#129= IFCPOSTALADDRESS($,$,$,$,('\X2\0423043A04300436043804420435\X0\ \X2\04300434044004350441\X0\'),$,'','\X2\041C043E0441043A04320430\X0\','','\X2\0420043E044104410438044F\X0\');
#133= IFCBUILDING('2O5hOKN$bC4ALcH8yLXqY3',#41,'',$,$,#32,$,'',.ELEMENT.,$,$,#129);
#139= IFCAXIS2PLACEMENT3D(#6,$,$);
#140= IFCLOCALPLACEMENT(#32,#139);
#142= IFCBUILDINGSTOREY('2O5hOKN$bC4ALcH8$gUBP5',#41,'\X2\04230440043E04320435043D044C\X0\ 1',$,'\X2\04230440043E04320435043D044C\X0\:\X2\0412043504400445043D04380439\X0\ \X2\0431044004430441\X0\ 8\X2\043C043C\X0\',#140,$,'\X2\04230440043E04320435043D044C\X0\ 1',.ELEMENT.,0.);
#144= IFCCARTESIANPOINT((0.,0.,4000.));
#146= IFCAXIS2PLACEMENT3D(#144,$,$);
#965= IFCRELDEFINESBYPROPERTIES('3kx2FQxSjDUfn0AK7QwMsR',#41,$,$,(#142),#897);
#899= IFCRELCONTAINEDINSPATIALSTRUCTURE('3Zu5Bv0LOHrPC10066FoQQ',#41,$,$,(#221,#392,#483,#614),#142);
#150= IFCAXIS2PLACEMENT3D(#6,$,$);
#151= IFCLOCALPLACEMENT($,#150);
#152= IFCSITE('2O5hOKN$bC4ALcH8yLXqY0',#41,'Default',$,$,#151,$,$,.ELEMENT.,(55,44,59,999999),(37,42,0,2746),0.,$,$);
#156= IFCPROPERTYSINGLEVALUE('\X2\041D0430043704320430043D04380435\X0\ \X2\043E044004330430043D043804370430044604380438\X0\',$,IFCTEXT(''),$);
#157= IFCPROPERTYSINGLEVALUE('\X2\041D04300438043C0435043D043E04320430043D04380435\X0\ \X2\043704340430043D0438044F\X0\',$,IFCTEXT(''),$);
#158= IFCPROPERTYSINGLEVALUE('\X2\041E043F043804410430043D04380435\X0\ \X2\043E044004330430043D043804370430044604380438\X0\',$,IFCTEXT(''),$);
#159= IFCPROPERTYSINGLEVALUE('\X2\042004300437044004300431043E04420430043B\X0\',$,IFCTEXT(''),$);
#160= IFCPROPERTYSINGLEVALUE('\X2\04100434044004350441\X0\ \X2\043F0440043E0435043A04420430\X0\',$,IFCTEXT('\X2\0423043A04300436043804420435\X0\ \X2\04300434044004350441\X0\'),$);
#161= IFCPROPERTYSINGLEVALUE('\X2\0414043004420430\X0\ \X2\04430442043204350440043604340435043D0438044F\X0\ \X2\043F0440043E0435043A04420430\X0\',$,IFCTEXT('\X2\0414043004420430\X0\ \X2\0432044B043F04430441043A0430\X0\'),$);
#162= IFCPROPERTYSINGLEVALUE('\X2\04170430043A0430043704470438043A\X0\',$,IFCTEXT('\X2\0412043B043004340435043B04350446\X0\'),$);
#163= IFCPROPERTYSINGLEVALUE('\X2\041A0430044204350433043E04400438044F\X0\',$,IFCLABEL('\X2\04210432043504340435043D0438044F\X0\ \X2\043E\X0\ \X2\043F0440043E0435043A04420435\X0\'),$);
#164= IFCPROPERTYSINGLEVALUE('\X2\041D04300438043C0435043D043E04320430043D04380435\X0\ \X2\043F0440043E0435043A04420430\X0\',$,IFCTEXT('\X2\041D04300438043C0435043D043E04320430043D04380435\X0\ \X2\043F0440043E0435043A04420430\X0\'),$);
#165= IFCPROPERTYSINGLEVALUE('\X2\041D043E043C04350440\X0\ \X2\043F0440043E0435043A04420430\X0\',$,IFCTEXT('\X2\041D043E043C04350440\X0\ \X2\043F0440043E0435043A04420430\X0\'),$);
#166= IFCPROPERTYSINGLEVALUE('\X2\042104420430044204430441\X0\ \X2\043F0440043E0435043A04420430\X0\',$,IFCTEXT('\X2\042104420430044204430441\X0\ \X2\043F0440043E0435043A04420430\X0\'),$);
#167= IFCPROPERTYSET('27PCKGLxT4mxtV86o6mgBW',#41,'\X2\041804340435043D0442043804440438043A043004460438044F\X0\',$,(#156,#157,#158,#159));
#172= IFCRELDEFINESBYPROPERTIES('27PCKGLxT4mxtV8Mo6mgBW',#41,$,$,(#152),#167);
#176= IFCPROPERTYSET('0o8KqhX6vE3uT4EpER1I28',#41,'\X2\041F0440043E044704350435\X0\',$,(#160,#161,#162,#163,#164,#165,#166));
#178= IFCRELDEFINESBYPROPERTIES('39PrlIfcT5G9eaCY$LeVqX',#41,$,$,(#152),#176);
#181= IFCAXIS2PLACEMENT3D(#6,$,$);
#962= IFCRELDEFINESBYPROPERTIES('0KxA2OBHvAOQlx3HUJEewW',#41,$,$,(#142),#895);
#183= IFCCARTESIANPOINT((0.,0.));
#185= IFCAXIS2PLACEMENT2D(#183,#23);
#186= IFCRECTANGLEPROFILEDEF(.AREA.,'986_2_0_648x598\X2\043C043C\X0\_H105\X2\043C043C\X0\',#185,648.,598.00000000004);
#187= IFCAXIS2PLACEMENT3D(#6,#19,#13);
#188= IFCEXTRUDEDAREASOLID(#186,#187,#19,105.);
#189= IFCSHAPEREPRESENTATION(#117,'Body','SweptSolid',(#188));
#192= IFCAXIS2PLACEMENT3D(#6,$,$);
#193= IFCREPRESENTATIONMAP(#192,#189);
#195= IFCLIGHTFIXTURETYPE('2UIRg2k5v3dv4Nw_PaFHXV',#41,'B2D_Linear_Luminair:986_2_0_648x598\X2\043C043C\X0\_H105\X2\043C043C\X0\',$,$,(#355,#357,#359,#361,#363,#365,#367,#369,#371),(#193),'596944',$,.NOTDEFINED.);
#198= IFCMATERIAL('<Unnamed>');
#201= IFCCLASSIFICATION('https://www.csiresources.org/standards/uniformat','1998',$,'Uniformat');
#203= IFCCARTESIANTRANSFORMATIONOPERATOR3D($,$,#6,1.,$);
#204= IFCMAPPEDITEM(#193,#203);
#206= IFCSHAPEREPRESENTATION(#117,'Body','MappedRepresentation',(#204));
#208= IFCPRODUCTDEFINITIONSHAPE($,$,(#206));
#212= IFCCARTESIANPOINT((5166.21,-7780.27,3500.));
#214= IFCDIRECTION((-0.764629033777488,0.282555012481868,-0.579228025587399));
#216= IFCDIRECTION((-0.298811961414029,0.640886750001791,0.707089517238124));
#218= IFCAXIS2PLACEMENT3D(#212,#214,#216);
#219= IFCLOCALPLACEMENT(#140,#218);
#221= IFCFLOWTERMINAL('2UIRg2k5v3dv4Nw_PaFHXS',#41,'B2D_Linear_Luminair:986_2_0_648x598\X2\043C043C\X0\_H105\X2\043C043C\X0\:596947',$,'B2D_Linear_Luminair:986_2_0_648x598\X2\043C043C\X0\_H105\X2\043C043C\X0\',#219,#208,'596947');
#231= IFCPROPERTYSINGLEVALUE('Reference',$,IFCIDENTIFIER('986_2_0_648x598\X2\043C043C\X0\_H105\X2\043C043C\X0\'),$);
#232= IFCPROPERTYSET('2UIRg2k5v3dv4Nu1HaFHXS',#41,'Pset_DistributionFlowElementCommon',$,(#231));
#234= IFCPROPERTYSET('2K5zCAM6P9YwrSNfCYZFcs',#41,'Pset_QuantityTakeOff',$,(#231));
#236= IFCRELDEFINESBYPROPERTIES('2Shp3pEnfBz90ZJvV1kiNa',#41,$,$,(#221),#232);
#240= IFCRELDEFINESBYPROPERTIES('25akMcBM5CuOp9i1nDlpP_',#41,$,$,(#221),#234);
#243= IFCPROPERTYSINGLEVALUE('ADSK_\X2\041F04400438043C043504470430043D04380435\X0\',$,IFCTEXT(''),$);
#244= IFCPROPERTYSINGLEVALUE('\X2\04140430043D043D044B0435\X0\ \X2\043E0431\X0\ \X2\044D043B0435043A04420440043E043E0431043E044004430434043E04320430043D04380438\X0\',$,IFCTEXT('\X2\041F04350440043204380447043D044B0439\X0\ \X2\044D043B0435043A044204400438044704350441043A04380439\X0\ \X2\0441043E043504340438043D043804420435043B044C\X0\ 230 \X2\0412\X0\/1-37 \X2\041200B70410\X0\'),$);
#245= IFCPROPERTYSINGLEVALUE('\X2\041D043E043C04350440\X0\ \X2\04460435043F0438\X0\',$,IFCTEXT(''),$);
#246= IFCPROPERTYSINGLEVALUE('\X2\041F0430043D0435043B044C\X0\',$,IFCTEXT(''),$);
#247= IFCPROPERTYSINGLEVALUE('\X2\042004300441044704350442\X0\ \X2\043A043E044D044404440438044604380435043D04420430\X0\ \X2\04380441043F043E043B044C0437043E04320430043D0438044F\X0\',$,IFCBOOLEAN(.F.),$);
#248= IFCPROPERTYSINGLEVALUE('\X2\041E0442043C04350442043A0430\X0\ \X2\043E0442\X0\ \X2\04430440043E0432043D044F\X0\',$,IFCLENGTHMEASURE(3500.),$);
#249= IFCPROPERTYSINGLEVALUE('\X2\042004300431043E04470430044F\X0\ \X2\043F043B043E0441043A043E04410442044C\X0\',$,IFCTEXT('<\X2\043D0435\X0\ \X2\04410432044F04370430043D043E\X0\>'),$);
#250= IFCPROPERTYSINGLEVALUE('\X2\0421043C043504490435043D04380435\X0\ \X2\043E0442\X0\ \X2\0433043B04300432043D043E0439\X0\ \X2\043C043E04340435043B0438\X0\',$,IFCLENGTHMEASURE(0.),$);
#251= IFCPROPERTYSINGLEVALUE('\X2\04230440043E04320435043D044C\X0\',$,IFCLABEL('\X2\04230440043E04320435043D044C\X0\: \X2\04230440043E04320435043D044C\X0\ 1'),$);
#252= IFCPROPERTYSINGLEVALUE('\X2\04230440043E04320435043D044C\X0\ \X2\0441043F04350446043804440438043A0430044604380438\X0\',$,IFCLABEL('\X2\04230440043E04320435043D044C\X0\: \X2\04230440043E04320435043D044C\X0\ 1'),$);
#253= IFCPROPERTYSINGLEVALUE('\X2\04210442043004340438044F\X0\ \X2\0432043E04370432043504340435043D0438044F\X0\',$,IFCLABEL('\X2\041D043E04320430044F\X0\ \X2\043A043E043D0441044204400443043A04460438044F\X0\'),$);
#254= IFCPROPERTYSINGLEVALUE('\X2\041A043E0440043E0431\X0\_\X2\041404380430043C043504420440\X0\',$,IFCLENGTHMEASURE(20.),$);
#255= IFCPROPERTYSINGLEVALUE('\X2\041E0431044A0435043C\X0\',$,IFCVOLUMEMEASURE(0.0406879200000027),$);
#256= IFCPROPERTYSINGLEVALUE('\X2\04230413041E\X0\_\X2\0421043C043504490435043D04380435\X0\ \X2\043F043E\X0\ \X2\043E04410438\X0\ X',$,IFCLENGTHMEASURE(1000.),$);
#257= IFCPROPERTYSINGLEVALUE('\X2\04230413041E\X0\_\X2\0421043C043504490435043D04380435\X0\ \X2\043F043E\X0\ \X2\043E04410438\X0\ Y',$,IFCLENGTHMEASURE(1000.),$);
#258= IFCPROPERTYSINGLEVALUE('\X2\041C04300440043A0430\X0\',$,IFCTEXT('5'),$);
#259= IFCPROPERTYSINGLEVALUE('\X2\041A0430044204350433043E04400438044F\X0\',$,IFCLABEL('\X2\041E0441043204350442043804420435043B044C043D044B0435\X0\ \X2\043F044004380431043E0440044B\X0\'),$);
#260= IFCPROPERTYSINGLEVALUE('\X2\041A043E0434\X0\ \X2\04420438043F0430\X0\',$,IFCLABEL('B2D_Linear_Luminair: 986_2_0_648x598\X2\043C043C\X0\_H105\X2\043C043C\X0\'),$);
#261= IFCPROPERTYSINGLEVALUE('\X2\04210435043C04350439044104420432043E\X0\',$,IFCLABEL('B2D_Linear_Luminair: 986_2_0_648x598\X2\043C043C\X0\_H105\X2\043C043C\X0\'),$);
#262= IFCPROPERTYSINGLEVALUE('\X2\04210435043C04350439044104420432043E\X0\ \X2\0438\X0\ \X2\04420438043F043E044004300437043C04350440\X0\',$,IFCLABEL('B2D_Linear_Luminair: 986_2_0_648x598\X2\043C043C\X0\_H105\X2\043C043C\X0\'),$);
#263= IFCPROPERTYSINGLEVALUE('\X2\04220438043F\X0\',$,IFCLABEL('B2D_Linear_Luminair: 986_2_0_648x598\X2\043C043C\X0\_H105\X2\043C043C\X0\'),$);
#264= IFCPROPERTYSINGLEVALUE('\X2\041F043E043A04300437\X0\ \X2\04310443043A0432044B\X0\ \X2\0410\X0\ \X2\0434043B044F\X0\ \X2\04410438043C0432043E043B0430\X0\ \X2\0432\X0\ \X2\043C0430044104480442043004310435\X0\',$,IFCBOOLEAN(.F.),$);
#265= IFCPROPERTYSINGLEVALUE('\X2\04210438043C0432043E043B\X0\ \X2\0432\X0\ \X2\043C0430044104480442043004310435\X0\',$,IFCBOOLEAN(.T.),$);
#266= IFCPROPERTYSINGLEVALUE('\X2\04210438043C0432043E043B\X0\ \X2\0432\X0\ \X2\043C0430044104480442043004310435\X0\_\X2\0421043204350442043E04340438043E0434043D044B0439\X0\',$,IFCBOOLEAN(.T.),$);
#267= IFCPROPERTYSINGLEVALUE('\X2\0421043A0440044B0442044C\X0\ \X2\0430043D043D043E0442043004460438044E\X0\',$,IFCBOOLEAN(.F.),$);
#268= IFCPROPERTYSINGLEVALUE('\X2\04230413041E\X0\_\X2\0412043D04350448043D04380439\X0\ \X2\043204380434\X0\',$,IFCLABEL('\X2\0421043204350442043E04340438043E0434043D044B0439\X0\'),$);
#269= IFCPROPERTYSINGLEVALUE('ADSK_URL \X2\0434043E043A0443043C0435043D04420430044604380438\X0\ \X2\0438043704340435043B0438044F\X0\',$,IFCTEXT(''),$);
#270= IFCPROPERTYSINGLEVALUE('ADSK_URL \X2\0441044204400430043D04380446044B\X0\ \X2\0438043704340435043B0438044F\X0\',$,IFCTEXT(''),$);
#271= IFCPROPERTYSINGLEVALUE('ADSK_\X2\041304400443043F043F04380440043E04320430043D04380435\X0\',$,IFCTEXT('\X2\04210432043504420438043B044C043D0438043A0438\X0\, \X2\0441043204350442043E0443043A04300437043004420435043B0438\X0\, \X2\0441043204350442043E0432044B0435\X0\ \X2\044204300431043B043E\X0\'),$);
#272= IFCPROPERTYSINGLEVALUE('ADSK_\X2\041504340438043D043804460430\X0\ \X2\04380437043C043504400435043D0438044F\X0\',$,IFCTEXT('\X2\04480442\X0\.'),$);
#273= IFCPROPERTYSINGLEVALUE('ADSK_\X2\041704300432043E0434\X0\-\X2\043804370433043E0442043E0432043804420435043B044C\X0\',$,IFCTEXT(''),$);
#274= IFCPROPERTYSINGLEVALUE('ADSK_\X2\041A043E0434\X0\ \X2\0438043704340435043B0438044F\X0\',$,IFCTEXT(''),$);
#275= IFCPROPERTYSINGLEVALUE('ADSK_\X2\041A043E043B043804470435044104420432043E\X0\',$,IFCREAL(1.),$);
#276= IFCPROPERTYSINGLEVALUE('ADSK_\X2\041C04300440043A0430\X0\',$,IFCTEXT(''),$);
#277= IFCPROPERTYSINGLEVALUE('ADSK_\X2\041C0430044104410430\X0\_\X2\04220435043A04410442\X0\',$,IFCTEXT(''),$);
#278= IFCPROPERTYSINGLEVALUE('ADSK_\X2\041D04300438043C0435043D043E04320430043D04380435\X0\',$,IFCTEXT('\X2\04210432043504420438043B044C043D0438043A\X0\ \X2\0441043204350442043E04340438043E0434043D044B0439\X0\ \X2\043B0438043D04350439043D044B0439\X0\'),$);
#279= IFCPROPERTYSINGLEVALUE('ADSK_\X2\041D04300438043C0435043D043E04320430043D04380435\X0\ \X2\043A044004300442043A043E0435\X0\',$,IFCTEXT(''),$);
#280= IFCPROPERTYSINGLEVALUE('ADSK_\X2\041E0431043E0437043D043004470435043D04380435\X0\',$,IFCTEXT(''),$);
#281= IFCPROPERTYSINGLEVALUE('ADSK_\X2\041F043E0437043804460438044F\X0\',$,IFCTEXT(''),$);
#282= IFCPROPERTYSINGLEVALUE('\X2\041A043E043B043804470435044104420432043E\X0\ \X2\043B0430043C043F\X0\',$,IFCREAL(1.),$);
#283= IFCPROPERTYSINGLEVALUE('\X2\041A043E043C043F043B0435043A0442043D043E\X0\ \X2\0441\X0\ \X2\04110410041F\X0\',$,IFCBOOLEAN(.F.),$);
#284= IFCPROPERTYSINGLEVALUE('\X2\041A043E043C043F043B0435043A0442043D043E\X0\ \X2\0441\X0\ \X2\043B0430043C043F043E0439\X0\',$,IFCBOOLEAN(.F.),$);
#285= IFCPROPERTYSINGLEVALUE('\X2\041B0430043C043F0430\X0\',$,IFCTEXT(''),$);
#286= IFCPROPERTYSINGLEVALUE('ADSK_\X2\041A043B043004410441043804440438043A043004460438044F\X0\ \X2\043D04300433044004430437043E043A\X0\',$,IFCLABEL('\X2\042004300431043E044704350435\X0\ \X2\043E04410432043504490435043D04380435\X0\'),$);
#287= IFCPROPERTYSINGLEVALUE('ADSK_\X2\041A043E043B043804470435044104420432043E\X0\ \X2\044404300437\X0\',$,IFCINTEGER(1),$);
#288= IFCPROPERTYSINGLEVALUE('ADSK_\X2\041A043E044D044404440438044604380435043D0442\X0\ \X2\043C043E0449043D043E044104420438\X0\',$,IFCREAL(0.95),$);
#289= IFCPROPERTYSINGLEVALUE('ADSK_\X2\041A041F0414\X0\',$,IFCREAL(1.),$);
#290= IFCPROPERTYSINGLEVALUE('ADSK_\X2\041A044004300442043D043E04410442044C\X0\ \X2\043F04430441043A043E0432043E0433043E\X0\ \X2\0442043E043A0430\X0\',$,IFCREAL(1.),$);
#291= IFCPROPERTYSINGLEVALUE('ADSK_\X2\041D0430043F0440044F04360435043D04380435\X0\',$,IFCELECTRICVOLTAGEMEASURE(230.),$);
#292= IFCPROPERTYSINGLEVALUE('ADSK_\X2\041D043E043C0438043D0430043B044C043D0430044F\X0\ \X2\043C043E0449043D043E04410442044C\X0\',$,IFCPOWERMEASURE(35.),$);
#293= IFCPROPERTYSINGLEVALUE('ADSK_\X2\041F043E043B043D0430044F\X0\ \X2\043C043E0449043D043E04410442044C\X0\',$,IFCPOWERMEASURE(36.8421052631579),$);
#294= IFCPROPERTYSINGLEVALUE('ADSK_\X2\041F04430441043A043E0432043E0439\X0\ \X2\0442043E043A\X0\',$,IFCELECTRICCURRENTMEASURE(0.160183066361556),$);
#295= IFCPROPERTYSINGLEVALUE('ADSK_\X2\0422043E043A\X0\',$,IFCELECTRICCURRENTMEASURE(0.160183066361556),$);
#296= IFCPROPERTYSINGLEVALUE('\X2\041E0442043C04350442043A0430\X0\ \X2\043F043E\X0\ \X2\0443043C043E043B04470430043D0438044E\X0\',$,IFCLENGTHMEASURE(1219.2),$);
#297= IFCPROPERTYSINGLEVALUE('ADSK_\X2\042004300437043C04350440\X0\_\X2\0412044B0441043E04420430\X0\',$,IFCLENGTHMEASURE(105.),$);
#298= IFCPROPERTYSINGLEVALUE('ADSK_\X2\042004300437043C04350440\X0\_\X2\0414043B0438043D0430\X0\',$,IFCLENGTHMEASURE(648.),$);
#299= IFCPROPERTYSINGLEVALUE('ADSK_\X2\042004300437043C04350440\X0\_\X2\0428043804400438043D0430\X0\',$,IFCLENGTHMEASURE(598.),$);
#300= IFCPROPERTYSINGLEVALUE('\X2\041A043E0440043E0431\X0\_\X2\041E0442044104420443043F\X0\ \X2\043E0442\X0\ \X2\043F043E0442043E043B043A0430\X0\',$,IFCLENGTHMEASURE(15.),$);
#301= IFCPROPERTYSINGLEVALUE('\X2\041704300433043E043B043E0432043E043A\X0\ OmniClass',$,IFCTEXT(''),$);
#302= IFCPROPERTYSINGLEVALUE('\X2\0418043C044F\X0\ \X2\04420438043F0430\X0\',$,IFCTEXT('986_2_0_648x598\X2\043C043C\X0\_H105\X2\043C043C\X0\'),$);
#303= IFCPROPERTYSINGLEVALUE('\X2\041A043E0434\X0\ \X2\043F043E\X0\ \X2\043A043B043004410441043804440438043A04300442043E04400443\X0\',$,IFCTEXT(''),$);
#304= IFCPROPERTYSINGLEVALUE('\X2\041D0430043704320430043D04380435\X0\ \X2\043D043E0440043C\X0\',$,IFCTEXT(''),$);
#305= IFCPROPERTYSINGLEVALUE('\X2\041D043E043C04350440\X0\ OmniClass',$,IFCTEXT(''),$);
#306= IFCPROPERTYSINGLEVALUE('\X2\041E043F043804410430043D04380435\X0\ \X2\043F043E\X0\ \X2\043A043B043004410441043804440438043A04300442043E04400443\X0\',$,IFCTEXT(''),$);
#307= IFCPROPERTYSINGLEVALUE('ADSK_\X2\04120435044004410438044F\X0\ Revit',$,IFCTEXT('v2021'),$);
#308= IFCPROPERTYSINGLEVALUE('ADSK_\X2\04120435044004410438044F\X0\ \X2\04410435043C043504390441044204320430\X0\',$,IFCTEXT('1.4'),$);
#309= IFCPROPERTYSINGLEVALUE('\X2\0418043C044F\X0\ \X2\04410435043C043504390441044204320430\X0\',$,IFCTEXT('B2D_Linear_Luminair'),$);
#310= IFCPROPERTYSET('2UIRg2k5v3dv4NxQfaFHXS',#41,'\X2\04140430043D043D044B0435\X0\',$,(#243));
#312= IFCRELDEFINESBYPROPERTIES('2UIRg2k5v3dv4NxAfaFHXS',#41,$,$,(#221),#310);
#315= IFCPROPERTYSET('2UIRg2k5v3dv4NxV9aFHXS',#41,'\X2\041704300432043804410438043C043E044104420438\X0\',$,(#248,#249,#250,#251,#252));
#317= IFCRELDEFINESBYPROPERTIES('2UIRg2k5v3dv4NxF9aFHXS',#41,$,$,(#221),#315);
#320= IFCPROPERTYSET('2UIRg2k5v3dv4NxUTaFHXS',#41,'\X2\041804340435043D0442043804440438043A043004460438044F\X0\',$,(#258));
#322= IFCRELDEFINESBYPROPERTIES('2UIRg2k5v3dv4NxETaFHXS',#41,$,$,(#221),#320);
#325= IFCPROPERTYSET('3c$o1NiHnCa8s1JTCgOQJc',#41,'\X2\041F0440043E044704350435\X0\',$,(#259,#260,#261,#262,#263));
#327= IFCRELDEFINESBYPROPERTIES('33Co_iALr32R4fltXDVjZp',#41,$,$,(#221),#325);
#330= IFCPROPERTYSET('2UIRg2k5v3dv4NxUHaFHXS',#41,'\X2\042004300437043C04350440044B\X0\',$,(#254,#255,#256,#257));
#332= IFCRELDEFINESBYPROPERTIES('2UIRg2k5v3dv4NxEHaFHXS',#41,$,$,(#221),#330);
#335= IFCPROPERTYSET('2UIRg2k5v3dv4NxUbaFHXS',#41,'\X2\042104420430043404380438\X0\',$,(#253));
#337= IFCRELDEFINESBYPROPERTIES('2UIRg2k5v3dv4NxEbaFHXS',#41,$,$,(#221),#335);
#340= IFCPROPERTYSET('2UIRg2k5v3dv4NxVnaFHXS',#41,'\X2\042D043B0435043A04420440043E044104350442043800A02014\X0\ \X2\043D04300433044004430437043A0438\X0\',$,(#245,#246));
#342= IFCRELDEFINESBYPROPERTIES('2UIRg2k5v3dv4NxFnaFHXS',#41,$,$,(#221),#340);
#345= IFCPROPERTYSET('2UIRg2k5v3dv4NxVzaFHXS',#41,'\X2\042D043B0435043A04420440043E044104350442043800A02014\X0\ \X2\043E04410432043504490435043D04380435\X0\',$,(#247));
#347= IFCRELDEFINESBYPROPERTIES('2UIRg2k5v3dv4NxFzaFHXS',#41,$,$,(#221),#345);
#350= IFCPROPERTYSET('2UIRg2k5v3dv4NxQraFHXS',#41,'\X2\042D043B0435043A04420440043E044104350442043800A02014\X0\ \X2\0441043E043704340430043D04380435\X0\ \X2\04460435043F04350439\X0\',$,(#244));
#352= IFCRELDEFINESBYPROPERTIES('2UIRg2k5v3dv4NxAraFHXS',#41,$,$,(#221),#350);
#355= IFCPROPERTYSET('2UIRg2k5v3dv4NxR5aFHXV',#41,'\X2\0412043804340438043C043E04410442044C\X0\',$,(#264,#265,#266,#267,#268));
#357= IFCPROPERTYSET('2UIRg2k5v3dv4NxQfaFHXV',#41,'\X2\04140430043D043D044B0435\X0\',$,(#269,#270,#271,#272,#273,#274,#275,#276,#277,#278,#279,#280,#281));
#359= IFCPROPERTYSET('2UIRg2k5v3dv4NxV9aFHXV',#41,'\X2\041704300432043804410438043C043E044104420438\X0\',$,(#296));
#361= IFCPROPERTYSET('2UIRg2k5v3dv4NxUTaFHXV',#41,'\X2\041804340435043D0442043804440438043A043004460438044F\X0\',$,(#301,#302,#303,#304,#305,#306));
#363= IFCPROPERTYSET('2UIRg2k5v3dv4NxQnaFHXV',#41,'\X2\041E0431044904380435\X0\',$,(#282,#283,#284));
#365= IFCPROPERTYSET('1rv6N9TsfFMuIFOw7Q1TR8',#41,'\X2\041F0440043E044704350435\X0\',$,(#259,#307,#308,#309));
#367= IFCPROPERTYSET('2UIRg2k5v3dv4NxUHaFHXV',#41,'\X2\042004300437043C04350440044B\X0\',$,(#297,#298,#299,#300));
#369= IFCPROPERTYSET('2UIRg2k5v3dv4NxVbaFHXV',#41,'\X2\042D043B0435043A04420440043E0441043504420438\X0\',$,(#285));
#371= IFCPROPERTYSET('2UIRg2k5v3dv4NxVnaFHXV',#41,'\X2\042D043B0435043A04420440043E044104350442043800A02014\X0\ \X2\043D04300433044004430437043A0438\X0\',$,(#286,#287,#288,#289,#290,#291,#292,#293,#294,#295));
#383= IFCMAPPEDITEM(#193,#203);
#384= IFCSHAPEREPRESENTATION(#117,'Body','MappedRepresentation',(#383));
#386= IFCPRODUCTDEFINITIONSHAPE($,$,(#384));
#388= IFCCARTESIANPOINT((6722.46,-6221.24,3500.));
#390= IFCAXIS2PLACEMENT3D(#388,#21,#15);
#391= IFCLOCALPLACEMENT(#140,#390);
#392= IFCFLOWTERMINAL('2UIRg2k5v3dv4Nw_PaFHXQ',#41,'B2D_Linear_Luminair:986_2_0_648x598\X2\043C043C\X0\_H105\X2\043C043C\X0\:596949',$,'B2D_Linear_Luminair:986_2_0_648x598\X2\043C043C\X0\_H105\X2\043C043C\X0\',#391,#386,'596949');
#395= IFCPROPERTYSET('2UIRg2k5v3dv4Nu1HaFHXQ',#41,'Pset_DistributionFlowElementCommon',$,(#231));
#397= IFCPROPERTYSET('284iYiG9P90AphtfNwzPvd',#41,'Pset_QuantityTakeOff',$,(#231));
#399= IFCRELDEFINESBYPROPERTIES('0mEhL8VqbBhQ3mkDMgKlAw',#41,$,$,(#392),#395);
#403= IFCRELDEFINESBYPROPERTIES('0eXY7nOErBZ8zY5nj4GzEB',#41,$,$,(#392),#397);
#406= IFCPROPERTYSINGLEVALUE('\X2\04140430043D043D044B0435\X0\ \X2\043E0431\X0\ \X2\044D043B0435043A04420440043E043E0431043E044004430434043E04320430043D04380438\X0\',$,IFCTEXT('\X2\041F04350440043204380447043D044B0439\X0\ \X2\044D043B0435043A044204400438044704350441043A04380439\X0\ \X2\0441043E043504340438043D043804420435043B044C\X0\ 230 \X2\0412\X0\/1-37 \X2\041200B70410\X0\'),$);
#407= IFCPROPERTYSINGLEVALUE('\X2\041E0442043C04350442043A0430\X0\ \X2\043E0442\X0\ \X2\04430440043E0432043D044F\X0\',$,IFCLENGTHMEASURE(3500.),$);
#408= IFCPROPERTYSINGLEVALUE('\X2\042004300431043E04470430044F\X0\ \X2\043F043B043E0441043A043E04410442044C\X0\',$,IFCTEXT('<\X2\043D0435\X0\ \X2\04410432044F04370430043D043E\X0\>'),$);
#409= IFCPROPERTYSINGLEVALUE('\X2\041A043E0440043E0431\X0\_\X2\041404380430043C043504420440\X0\',$,IFCLENGTHMEASURE(20.),$);
#410= IFCPROPERTYSINGLEVALUE('\X2\041E0431044A0435043C\X0\',$,IFCVOLUMEMEASURE(0.0406879200000027),$);
#411= IFCPROPERTYSINGLEVALUE('\X2\04230413041E\X0\_\X2\0421043C043504490435043D04380435\X0\ \X2\043F043E\X0\ \X2\043E04410438\X0\ X',$,IFCLENGTHMEASURE(1000.),$);
#412= IFCPROPERTYSINGLEVALUE('\X2\04230413041E\X0\_\X2\0421043C043504490435043D04380435\X0\ \X2\043F043E\X0\ \X2\043E04410438\X0\ Y',$,IFCLENGTHMEASURE(1000.),$);
#413= IFCPROPERTYSINGLEVALUE('\X2\041C04300440043A0430\X0\',$,IFCTEXT('6'),$);
#414= IFCPROPERTYSET('2UIRg2k5v3dv4NxQfaFHXQ',#41,'\X2\04140430043D043D044B0435\X0\',$,(#243));
#416= IFCRELDEFINESBYPROPERTIES('2UIRg2k5v3dv4NxAfaFHXQ',#41,$,$,(#392),#414);
#419= IFCPROPERTYSET('2UIRg2k5v3dv4NxV9aFHXQ',#41,'\X2\041704300432043804410438043C043E044104420438\X0\',$,(#250,#251,#252,#407,#408));
#421= IFCRELDEFINESBYPROPERTIES('2UIRg2k5v3dv4NxF9aFHXQ',#41,$,$,(#392),#419);
#424= IFCPROPERTYSET('2UIRg2k5v3dv4NxUTaFHXQ',#41,'\X2\041804340435043D0442043804440438043A043004460438044F\X0\',$,(#413));
#426= IFCRELDEFINESBYPROPERTIES('2UIRg2k5v3dv4NxETaFHXQ',#41,$,$,(#392),#424);
#429= IFCPROPERTYSET('3Zs32NW2v8IPhohiOU_lB8',#41,'\X2\041F0440043E044704350435\X0\',$,(#259,#260,#261,#262,#263));
#431= IFCRELDEFINESBYPROPERTIES('0VdUCANeT2YOABMlFObTXr',#41,$,$,(#392),#429);
#434= IFCPROPERTYSET('2UIRg2k5v3dv4NxUHaFHXQ',#41,'\X2\042004300437043C04350440044B\X0\',$,(#409,#410,#411,#412));
#436= IFCRELDEFINESBYPROPERTIES('2UIRg2k5v3dv4NxEHaFHXQ',#41,$,$,(#392),#434);
#439= IFCPROPERTYSET('2UIRg2k5v3dv4NxUbaFHXQ',#41,'\X2\042104420430043404380438\X0\',$,(#253));
#441= IFCRELDEFINESBYPROPERTIES('2UIRg2k5v3dv4NxEbaFHXQ',#41,$,$,(#392),#439);
#444= IFCPROPERTYSET('2UIRg2k5v3dv4NxVnaFHXQ',#41,'\X2\042D043B0435043A04420440043E044104350442043800A02014\X0\ \X2\043D04300433044004430437043A0438\X0\',$,(#245,#246));
#446= IFCRELDEFINESBYPROPERTIES('2UIRg2k5v3dv4NxFnaFHXQ',#41,$,$,(#392),#444);
#449= IFCPROPERTYSET('2UIRg2k5v3dv4NxVzaFHXQ',#41,'\X2\042D043B0435043A04420440043E044104350442043800A02014\X0\ \X2\043E04410432043504490435043D04380435\X0\',$,(#247));
#451= IFCRELDEFINESBYPROPERTIES('2UIRg2k5v3dv4NxFzaFHXQ',#41,$,$,(#392),#449);
#454= IFCPROPERTYSET('2UIRg2k5v3dv4NxQraFHXQ',#41,'\X2\042D043B0435043A04420440043E044104350442043800A02014\X0\ \X2\0441043E043704340430043D04380435\X0\ \X2\04460435043F04350439\X0\',$,(#406));
#456= IFCRELDEFINESBYPROPERTIES('2UIRg2k5v3dv4NxAraFHXQ',#41,$,$,(#392),#454);
#459= IFCAXIS2PLACEMENT3D(#6,$,$);
#959= IFCRELDEFINESBYPROPERTIES('0uVumfVBfA692GwBKwJgHt',#41,$,$,(#142),#893);
#461= IFCCARTESIANPOINT((5.58951574548261E-16,-1.61554457443259E-12));
#463= IFCAXIS2PLACEMENT2D(#461,#23);
#464= IFCCIRCLEPROFILEDEF(.AREA.,'341_2_0_\X2\00D8\X0\2000\X2\043C043C\X0\_H90\X2\043C043C\X0\',#463,1000.);
#465= IFCAXIS2PLACEMENT3D(#6,$,$);
#466= IFCEXTRUDEDAREASOLID(#464,#465,#19,90.);
#467= IFCSHAPEREPRESENTATION(#117,'Body','SweptSolid',(#466));
#469= IFCAXIS2PLACEMENT3D(#6,$,$);
#470= IFCREPRESENTATIONMAP(#469,#467);
#471= IFCLIGHTFIXTURETYPE('2UIRg2k5v3dv4Nw_PaFHXP',#41,'B2D_Circular_Luminair:341_2_0_\X2\00D8\X0\2000\X2\043C043C\X0\_H90\X2\043C043C\X0\',$,$,(#573,#575,#577,#579,#581,#583,#585,#587,#589),(#470),'596950',$,.NOTDEFINED.);
#473= IFCMAPPEDITEM(#470,#203);
#475= IFCSHAPEREPRESENTATION(#117,'Body','MappedRepresentation',(#473));
#477= IFCPRODUCTDEFINITIONSHAPE($,$,(#475));
#479= IFCCARTESIANPOINT((12084.12,-477.04,3500.));
#481= IFCAXIS2PLACEMENT3D(#479,#21,#15);
#482= IFCLOCALPLACEMENT(#140,#481);
#483= IFCFLOWTERMINAL('2UIRg2k5v3dv4Nw_PaFHXM',#41,'B2D_Circular_Luminair:341_2_0_\X2\00D8\X0\2000\X2\043C043C\X0\_H90\X2\043C043C\X0\:596953',$,'B2D_Circular_Luminair:341_2_0_\X2\00D8\X0\2000\X2\043C043C\X0\_H90\X2\043C043C\X0\',#482,#477,'596953');
#486= IFCPROPERTYSINGLEVALUE('Reference',$,IFCIDENTIFIER('341_2_0_\X2\00D8\X0\2000\X2\043C043C\X0\_H90\X2\043C043C\X0\'),$);
#487= IFCPROPERTYSET('2UIRg2k5v3dv4Nu1HaFHXM',#41,'Pset_DistributionFlowElementCommon',$,(#486));
#489= IFCPROPERTYSET('2HcrU6I4P1kebum2GX4jv6',#41,'Pset_QuantityTakeOff',$,(#486));
#491= IFCRELDEFINESBYPROPERTIES('2a7A_LiAH5hwxPji6DbbpK',#41,$,$,(#483),#487);
#495= IFCRELDEFINESBYPROPERTIES('0dkMNk50j3H9lXu7NKi41G',#41,$,$,(#483),#489);
#498= IFCPROPERTYSINGLEVALUE('\X2\04140430043D043D044B0435\X0\ \X2\043E0431\X0\ \X2\044D043B0435043A04420440043E043E0431043E044004430434043E04320430043D04380438\X0\',$,IFCTEXT('\X2\041F04350440043204380447043D044B0439\X0\ \X2\044D043B0435043A044204400438044704350441043A04380439\X0\ \X2\0441043E043504340438043D043804420435043B044C\X0\ 230 \X2\0412\X0\/1-15 \X2\041200B70410\X0\'),$);
#499= IFCPROPERTYSINGLEVALUE('\X2\041E0442043C04350442043A0430\X0\ \X2\043E0442\X0\ \X2\04430440043E0432043D044F\X0\',$,IFCLENGTHMEASURE(3500.),$);
#500= IFCPROPERTYSINGLEVALUE('\X2\042004300431043E04470430044F\X0\ \X2\043F043B043E0441043A043E04410442044C\X0\',$,IFCTEXT('<\X2\043D0435\X0\ \X2\04410432044F04370430043D043E\X0\>'),$);
#501= IFCPROPERTYSINGLEVALUE('\X2\041A043E0440043E0431\X0\_\X2\041404380430043C043504420440\X0\',$,IFCLENGTHMEASURE(20.),$);
#502= IFCPROPERTYSINGLEVALUE('\X2\041E0431044A0435043C\X0\',$,IFCVOLUMEMEASURE(0.282741136539293),$);
#503= IFCPROPERTYSINGLEVALUE('\X2\04230413041E\X0\_\X2\0421043C043504490435043D04380435\X0\ \X2\043F043E\X0\ \X2\043E04410438\X0\ X',$,IFCLENGTHMEASURE(1000.),$);
#504= IFCPROPERTYSINGLEVALUE('\X2\04230413041E\X0\_\X2\0421043C043504490435043D04380435\X0\ \X2\043F043E\X0\ \X2\043E04410438\X0\ Y',$,IFCLENGTHMEASURE(1000.),$);
#505= IFCPROPERTYSINGLEVALUE('\X2\041C04300440043A0430\X0\',$,IFCTEXT('7'),$);
#506= IFCPROPERTYSINGLEVALUE('\X2\041A043E0434\X0\ \X2\04420438043F0430\X0\',$,IFCLABEL('B2D_Circular_Luminair: 341_2_0_\X2\00D8\X0\2000\X2\043C043C\X0\_H90\X2\043C043C\X0\'),$);
#507= IFCPROPERTYSINGLEVALUE('\X2\04210435043C04350439044104420432043E\X0\',$,IFCLABEL('B2D_Circular_Luminair: 341_2_0_\X2\00D8\X0\2000\X2\043C043C\X0\_H90\X2\043C043C\X0\'),$);
#508= IFCPROPERTYSINGLEVALUE('\X2\04210435043C04350439044104420432043E\X0\ \X2\0438\X0\ \X2\04420438043F043E044004300437043C04350440\X0\',$,IFCLABEL('B2D_Circular_Luminair: 341_2_0_\X2\00D8\X0\2000\X2\043C043C\X0\_H90\X2\043C043C\X0\'),$);
#509= IFCPROPERTYSINGLEVALUE('\X2\04220438043F\X0\',$,IFCLABEL('B2D_Circular_Luminair: 341_2_0_\X2\00D8\X0\2000\X2\043C043C\X0\_H90\X2\043C043C\X0\'),$);
#510= IFCPROPERTYSINGLEVALUE('\X2\04230413041E\X0\_\X2\0412043D04350448043D04380439\X0\ \X2\043204380434\X0\',$,IFCLABEL('\X2\0421043204350442043E04340438043E0434043D044B0439\X0\'),$);
#511= IFCPROPERTYSINGLEVALUE('ADSK_\X2\041304400443043F043F04380440043E04320430043D04380435\X0\',$,IFCTEXT('\X2\04210432043504420438043B044C043D0438043A0438\X0\, \X2\0441043204350442043E0443043A04300437043004420435043B0438\X0\, \X2\0441043204350442043E0432044B0435\X0\ \X2\044204300431043B043E\X0\'),$);
#512= IFCPROPERTYSINGLEVALUE('ADSK_\X2\041504340438043D043804460430\X0\ \X2\04380437043C043504400435043D0438044F\X0\',$,IFCTEXT('\X2\04480442\X0\.'),$);
#513= IFCPROPERTYSINGLEVALUE('ADSK_\X2\041D04300438043C0435043D043E04320430043D04380435\X0\',$,IFCTEXT('\X2\04210432043504420438043B044C043D0438043A\X0\ \X2\0441043204350442043E04340438043E0434043D044B0439\X0\ \X2\043A044004430433043B044B0439\X0\ \X2\043204410442044004300438043204300435043C044B0439\X0\'),$);
#514= IFCPROPERTYSINGLEVALUE('ADSK_\X2\041A043E044D044404440438044604380435043D0442\X0\ \X2\043C043E0449043D043E044104420438\X0\',$,IFCREAL(0.95),$);
#515= IFCPROPERTYSINGLEVALUE('ADSK_\X2\041D0430043F0440044F04360435043D04380435\X0\',$,IFCELECTRICVOLTAGEMEASURE(230.),$);
#516= IFCPROPERTYSINGLEVALUE('ADSK_\X2\041D043E043C0438043D0430043B044C043D0430044F\X0\ \X2\043C043E0449043D043E04410442044C\X0\',$,IFCPOWERMEASURE(14.),$);
#517= IFCPROPERTYSINGLEVALUE('ADSK_\X2\041F043E043B043D0430044F\X0\ \X2\043C043E0449043D043E04410442044C\X0\',$,IFCPOWERMEASURE(14.7368421052632),$);
#518= IFCPROPERTYSINGLEVALUE('ADSK_\X2\041F04430441043A043E0432043E0439\X0\ \X2\0442043E043A\X0\',$,IFCELECTRICCURRENTMEASURE(0.0640732265446224),$);
#519= IFCPROPERTYSINGLEVALUE('ADSK_\X2\0422043E043A\X0\',$,IFCELECTRICCURRENTMEASURE(0.0640732265446224),$);
#520= IFCPROPERTYSINGLEVALUE('ADSK_\X2\042004300437043C04350440\X0\_\X2\0412044B0441043E04420430\X0\',$,IFCLENGTHMEASURE(90.),$);
#521= IFCPROPERTYSINGLEVALUE('ADSK_\X2\042004300437043C04350440\X0\_\X2\0414043B0438043D0430\X0\',$,IFCLENGTHMEASURE(2000.),$);
#522= IFCPROPERTYSINGLEVALUE('ADSK_\X2\042004300437043C04350440\X0\_\X2\0428043804400438043D0430\X0\',$,IFCLENGTHMEASURE(2000.),$);
#523= IFCPROPERTYSINGLEVALUE('\X2\041A043E0440043E0431\X0\_\X2\041E0442044104420443043F\X0\ \X2\043E0442\X0\ \X2\043F043E0442043E043B043A0430\X0\',$,IFCLENGTHMEASURE(15.),$);
#524= IFCPROPERTYSINGLEVALUE('\X2\0418043C044F\X0\ \X2\04420438043F0430\X0\',$,IFCTEXT('341_2_0_\X2\00D8\X0\2000\X2\043C043C\X0\_H90\X2\043C043C\X0\'),$);
#525= IFCPROPERTYSINGLEVALUE('ADSK_\X2\04120435044004410438044F\X0\ Revit',$,IFCTEXT('v2021'),$);
#526= IFCPROPERTYSINGLEVALUE('ADSK_\X2\04120435044004410438044F\X0\ \X2\04410435043C043504390441044204320430\X0\',$,IFCTEXT('1.4'),$);
#527= IFCPROPERTYSINGLEVALUE('\X2\0418043C044F\X0\ \X2\04410435043C043504390441044204320430\X0\',$,IFCTEXT('B2D_Circular_Luminair'),$);
#528= IFCPROPERTYSET('2UIRg2k5v3dv4NxQfaFHXM',#41,'\X2\04140430043D043D044B0435\X0\',$,(#243));
#530= IFCRELDEFINESBYPROPERTIES('2UIRg2k5v3dv4NxAfaFHXM',#41,$,$,(#483),#528);
#533= IFCPROPERTYSET('2UIRg2k5v3dv4NxV9aFHXM',#41,'\X2\041704300432043804410438043C043E044104420438\X0\',$,(#250,#251,#252,#499,#500));
#535= IFCRELDEFINESBYPROPERTIES('2UIRg2k5v3dv4NxF9aFHXM',#41,$,$,(#483),#533);
#538= IFCPROPERTYSET('2UIRg2k5v3dv4NxUTaFHXM',#41,'\X2\041804340435043D0442043804440438043A043004460438044F\X0\',$,(#505));
#540= IFCRELDEFINESBYPROPERTIES('2UIRg2k5v3dv4NxETaFHXM',#41,$,$,(#483),#538);
#543= IFCPROPERTYSET('3nIloqWN98VON4XMFVX1zf',#41,'\X2\041F0440043E044704350435\X0\',$,(#259,#506,#507,#508,#509));
#545= IFCRELDEFINESBYPROPERTIES('22P6weTT5Cafz2SPLvZ$zP',#41,$,$,(#483),#543);
#548= IFCPROPERTYSET('2UIRg2k5v3dv4NxUHaFHXM',#41,'\X2\042004300437043C04350440044B\X0\',$,(#501,#502,#503,#504));
#550= IFCRELDEFINESBYPROPERTIES('2UIRg2k5v3dv4NxEHaFHXM',#41,$,$,(#483),#548);
#553= IFCPROPERTYSET('2UIRg2k5v3dv4NxUbaFHXM',#41,'\X2\042104420430043404380438\X0\',$,(#253));
#555= IFCRELDEFINESBYPROPERTIES('2UIRg2k5v3dv4NxEbaFHXM',#41,$,$,(#483),#553);
#558= IFCPROPERTYSET('2UIRg2k5v3dv4NxVnaFHXM',#41,'\X2\042D043B0435043A04420440043E044104350442043800A02014\X0\ \X2\043D04300433044004430437043A0438\X0\',$,(#245,#246));
#560= IFCRELDEFINESBYPROPERTIES('2UIRg2k5v3dv4NxFnaFHXM',#41,$,$,(#483),#558);
#563= IFCPROPERTYSET('2UIRg2k5v3dv4NxVzaFHXM',#41,'\X2\042D043B0435043A04420440043E044104350442043800A02014\X0\ \X2\043E04410432043504490435043D04380435\X0\',$,(#247));
#565= IFCRELDEFINESBYPROPERTIES('2UIRg2k5v3dv4NxFzaFHXM',#41,$,$,(#483),#563);
#568= IFCPROPERTYSET('2UIRg2k5v3dv4NxQraFHXM',#41,'\X2\042D043B0435043A04420440043E044104350442043800A02014\X0\ \X2\0441043E043704340430043D04380435\X0\ \X2\04460435043F04350439\X0\',$,(#498));
#570= IFCRELDEFINESBYPROPERTIES('2UIRg2k5v3dv4NxAraFHXM',#41,$,$,(#483),#568);
#573= IFCPROPERTYSET('2UIRg2k5v3dv4NxR5aFHXP',#41,'\X2\0412043804340438043C043E04410442044C\X0\',$,(#510));
#575= IFCPROPERTYSET('2UIRg2k5v3dv4NxQfaFHXP',#41,'\X2\04140430043D043D044B0435\X0\',$,(#269,#270,#273,#274,#275,#276,#277,#279,#280,#281,#511,#512,#513));
#577= IFCPROPERTYSET('2UIRg2k5v3dv4NxV9aFHXP',#41,'\X2\041704300432043804410438043C043E044104420438\X0\',$,(#296));
#579= IFCPROPERTYSET('2UIRg2k5v3dv4NxUTaFHXP',#41,'\X2\041804340435043D0442043804440438043A043004460438044F\X0\',$,(#301,#303,#304,#305,#306,#524));
#581= IFCPROPERTYSET('2UIRg2k5v3dv4NxQnaFHXP',#41,'\X2\041E0431044904380435\X0\',$,(#282,#283,#284));
#583= IFCPROPERTYSET('2N8EWspTPBBfeBbz01qQ9p',#41,'\X2\041F0440043E044704350435\X0\',$,(#259,#525,#526,#527));
#585= IFCPROPERTYSET('2UIRg2k5v3dv4NxUHaFHXP',#41,'\X2\042004300437043C04350440044B\X0\',$,(#520,#521,#522,#523));
#587= IFCPROPERTYSET('2UIRg2k5v3dv4NxVbaFHXP',#41,'\X2\042D043B0435043A04420440043E0441043504420438\X0\',$,(#285));
#589= IFCPROPERTYSET('2UIRg2k5v3dv4NxVnaFHXP',#41,'\X2\042D043B0435043A04420440043E044104350442043800A02014\X0\ \X2\043D04300433044004430437043A0438\X0\',$,(#286,#287,#289,#290,#514,#515,#516,#517,#518,#519));
#601= IFCMAPPEDITEM(#470,#203);
#602= IFCSHAPEREPRESENTATION(#117,'Body','MappedRepresentation',(#601));
#604= IFCPRODUCTDEFINITIONSHAPE($,$,(#602));
#606= IFCCARTESIANPOINT((9290.79,-3573.41,3500.));
#608= IFCDIRECTION((-0.764629033777488,0.282555012481868,-0.579228025587399));
#610= IFCDIRECTION((-0.298811961414029,0.640886750001791,0.707089517238124));
#612= IFCAXIS2PLACEMENT3D(#606,#608,#610);
#613= IFCLOCALPLACEMENT(#140,#612);
#614= IFCFLOWTERMINAL('2UIRg2k5v3dv4Nw_PaFHXK',#41,'B2D_Circular_Luminair:341_2_0_\X2\00D8\X0\2000\X2\043C043C\X0\_H90\X2\043C043C\X0\:596955',$,'B2D_Circular_Luminair:341_2_0_\X2\00D8\X0\2000\X2\043C043C\X0\_H90\X2\043C043C\X0\',#613,#604,'596955');
#617= IFCPROPERTYSET('2UIRg2k5v3dv4Nu1HaFHXK',#41,'Pset_DistributionFlowElementCommon',$,(#486));
#619= IFCPROPERTYSET('3YmQINveD8RPM5RuBUCmw4',#41,'Pset_QuantityTakeOff',$,(#486));
#621= IFCRELDEFINESBYPROPERTIES('2fPkcyZ$PCfPr9Csa0m7US',#41,$,$,(#614),#617);
#625= IFCRELDEFINESBYPROPERTIES('2vbWJXVHT0a8oVurtTT7jU',#41,$,$,(#614),#619);
#628= IFCPROPERTYSINGLEVALUE('\X2\04140430043D043D044B0435\X0\ \X2\043E0431\X0\ \X2\044D043B0435043A04420440043E043E0431043E044004430434043E04320430043D04380438\X0\',$,IFCTEXT('\X2\041F04350440043204380447043D044B0439\X0\ \X2\044D043B0435043A044204400438044704350441043A04380439\X0\ \X2\0441043E043504340438043D043804420435043B044C\X0\ 230 \X2\0412\X0\/1-15 \X2\041200B70410\X0\'),$);
#629= IFCPROPERTYSINGLEVALUE('\X2\041E0442043C04350442043A0430\X0\ \X2\043E0442\X0\ \X2\04430440043E0432043D044F\X0\',$,IFCLENGTHMEASURE(3500.),$);
#630= IFCPROPERTYSINGLEVALUE('\X2\042004300431043E04470430044F\X0\ \X2\043F043B043E0441043A043E04410442044C\X0\',$,IFCTEXT('<\X2\043D0435\X0\ \X2\04410432044F04370430043D043E\X0\>'),$);
#631= IFCPROPERTYSINGLEVALUE('\X2\041A043E0440043E0431\X0\_\X2\041404380430043C043504420440\X0\',$,IFCLENGTHMEASURE(20.),$);
#632= IFCPROPERTYSINGLEVALUE('\X2\041E0431044A0435043C\X0\',$,IFCVOLUMEMEASURE(0.282741136539293),$);
#633= IFCPROPERTYSINGLEVALUE('\X2\04230413041E\X0\_\X2\0421043C043504490435043D04380435\X0\ \X2\043F043E\X0\ \X2\043E04410438\X0\ X',$,IFCLENGTHMEASURE(1000.),$);
#634= IFCPROPERTYSINGLEVALUE('\X2\04230413041E\X0\_\X2\0421043C043504490435043D04380435\X0\ \X2\043F043E\X0\ \X2\043E04410438\X0\ Y',$,IFCLENGTHMEASURE(1000.),$);
#635= IFCPROPERTYSINGLEVALUE('\X2\041C04300440043A0430\X0\',$,IFCTEXT('8'),$);
#636= IFCPROPERTYSET('2UIRg2k5v3dv4NxQfaFHXK',#41,'\X2\04140430043D043D044B0435\X0\',$,(#243));
#638= IFCRELDEFINESBYPROPERTIES('2UIRg2k5v3dv4NxAfaFHXK',#41,$,$,(#614),#636);
#641= IFCPROPERTYSET('2UIRg2k5v3dv4NxV9aFHXK',#41,'\X2\041704300432043804410438043C043E044104420438\X0\',$,(#250,#251,#252,#629,#630));
#643= IFCRELDEFINESBYPROPERTIES('2UIRg2k5v3dv4NxF9aFHXK',#41,$,$,(#614),#641);
#646= IFCPROPERTYSET('2UIRg2k5v3dv4NxUTaFHXK',#41,'\X2\041804340435043D0442043804440438043A043004460438044F\X0\',$,(#635));
#648= IFCRELDEFINESBYPROPERTIES('2UIRg2k5v3dv4NxETaFHXK',#41,$,$,(#614),#646);
#651= IFCPROPERTYSET('3z6$WJ7kr1KgGHMz8Tziu7',#41,'\X2\041F0440043E044704350435\X0\',$,(#259,#506,#507,#508,#509));
#653= IFCRELDEFINESBYPROPERTIES('108napmz1EiQQ_Et8NuXoh',#41,$,$,(#614),#651);
#656= IFCPROPERTYSET('2UIRg2k5v3dv4NxUHaFHXK',#41,'\X2\042004300437043C04350440044B\X0\',$,(#631,#632,#633,#634));
#658= IFCRELDEFINESBYPROPERTIES('2UIRg2k5v3dv4NxEHaFHXK',#41,$,$,(#614),#656);
#661= IFCPROPERTYSET('2UIRg2k5v3dv4NxUbaFHXK',#41,'\X2\042104420430043404380438\X0\',$,(#253));
#663= IFCRELDEFINESBYPROPERTIES('2UIRg2k5v3dv4NxEbaFHXK',#41,$,$,(#614),#661);
#666= IFCPROPERTYSET('2UIRg2k5v3dv4NxVnaFHXK',#41,'\X2\042D043B0435043A04420440043E044104350442043800A02014\X0\ \X2\043D04300433044004430437043A0438\X0\',$,(#245,#246));
#668= IFCRELDEFINESBYPROPERTIES('2UIRg2k5v3dv4NxFnaFHXK',#41,$,$,(#614),#666);
#671= IFCPROPERTYSET('2UIRg2k5v3dv4NxVzaFHXK',#41,'\X2\042D043B0435043A04420440043E044104350442043800A02014\X0\ \X2\043E04410432043504490435043D04380435\X0\',$,(#247));
#673= IFCRELDEFINESBYPROPERTIES('2UIRg2k5v3dv4NxFzaFHXK',#41,$,$,(#614),#671);
#676= IFCPROPERTYSET('2UIRg2k5v3dv4NxQraFHXK',#41,'\X2\042D043B0435043A04420440043E044104350442043800A02014\X0\ \X2\0441043E043704340430043D04380435\X0\ \X2\04460435043F04350439\X0\',$,(#628));
#678= IFCRELDEFINESBYPROPERTIES('2UIRg2k5v3dv4NxAraFHXK',#41,$,$,(#614),#676);
#681= IFCCARTESIANPOINT((324.,0.,15.));
#683= IFCAXIS2PLACEMENT3D(#681,#11,#15);
#684= IFCLOCALPLACEMENT(#219,#683);
#686= IFCDISTRIBUTIONPORT('2__kvzmcv7mBtPYDLV$2mn',#41,'Port_596947','Flow',$,#684,$,.SOURCEANDSINK.);
#691= IFCRELCONNECTSPORTTOELEMENT('3QuZwDtnT928_WvubbCa1p',#41,'596947|3QuZwDtnT928_WvubbCa1p','Flow',#686,#221);
#694= IFCCARTESIANPOINT((-324.,0.,15.));
#696= IFCAXIS2PLACEMENT3D(#694,#13,#17);
#697= IFCLOCALPLACEMENT(#219,#696);
#698= IFCDISTRIBUTIONPORT('0mHCYaDG5CBQTOOh33Jq6q',#41,'Port_596947','Flow',$,#697,$,.SOURCEANDSINK.);
#700= IFCRELCONNECTSPORTTOELEMENT('0A0g7lIZHFke4MvetxHzUf',#41,'596947|0A0g7lIZHFke4MvetxHzUf','Flow',#698,#221);
#702= IFCAXIS2PLACEMENT3D(#6,$,$);
#703= IFCLOCALPLACEMENT(#219,#702);
#704= IFCDISTRIBUTIONPORT('0qXXHsk2nBHfuRzzyXUWSb',#41,'Port_596947','Flow',$,#703,$,.SOURCEANDSINK.);
#706= IFCRELCONNECTSPORTTOELEMENT('3vNU24bAj3MOtEkj7B4EvP',#41,'596947|3vNU24bAj3MOtEkj7B4EvP','Flow',#704,#221);
#708= IFCCARTESIANPOINT((0.,-299.,15.));
#710= IFCAXIS2PLACEMENT3D(#708,#17,#11);
#711= IFCLOCALPLACEMENT(#219,#710);
#712= IFCDISTRIBUTIONPORT('3sROY8fKDBOvmK03d2SvIh',#41,'Port_596947','Flow',$,#711,$,.SOURCEANDSINK.);
#714= IFCRELCONNECTSPORTTOELEMENT('0R7uuFaJLDQBDnc7ijrOLI',#41,'596947|0R7uuFaJLDQBDnc7ijrOLI','Flow',#712,#221);
#716= IFCCARTESIANPOINT((0.,299.,15.));
#718= IFCAXIS2PLACEMENT3D(#716,#15,#13);
#719= IFCLOCALPLACEMENT(#219,#718);
#720= IFCDISTRIBUTIONPORT('3TPlhFMIb6wh9oYDcdu5Qs',#41,'Port_596947','Flow',$,#719,$,.SOURCEANDSINK.);
#722= IFCRELCONNECTSPORTTOELEMENT('3aXpPqAj99vgZaiVporVYI',#41,'596947|3aXpPqAj99vgZaiVporVYI','Flow',#720,#221);
#724= IFCCARTESIANPOINT((0.,299.,15.));
#726= IFCAXIS2PLACEMENT3D(#724,#15,#13);
#727= IFCLOCALPLACEMENT(#391,#726);
#729= IFCDISTRIBUTIONPORT('136TrHbeb0rQkBHPwt8nv1',#41,'Port_596949','Flow',$,#727,$,.SOURCEANDSINK.);
#731= IFCRELCONNECTSPORTTOELEMENT('3MzgXdW0nFOhLoSqFsCTfb',#41,'596949|3MzgXdW0nFOhLoSqFsCTfb','Flow',#729,#392);
#734= IFCCARTESIANPOINT((0.,-299.,15.));
#736= IFCAXIS2PLACEMENT3D(#734,#17,#11);
#737= IFCLOCALPLACEMENT(#391,#736);
#738= IFCDISTRIBUTIONPORT('0nkrOzjXH8lu5oV6TmMv5p',#41,'Port_596949','Flow',$,#737,$,.SOURCEANDSINK.);
#740= IFCRELCONNECTSPORTTOELEMENT('0U2cMdz3XBnh46ERaBe3a8',#41,'596949|0U2cMdz3XBnh46ERaBe3a8','Flow',#738,#392);
#742= IFCAXIS2PLACEMENT3D(#6,$,$);
#743= IFCLOCALPLACEMENT(#391,#742);
#744= IFCDISTRIBUTIONPORT('0yxAUOzH19zPf8hHiewtA8',#41,'Port_596949','Flow',$,#743,$,.SOURCEANDSINK.);
#746= IFCRELCONNECTSPORTTOELEMENT('3dgU64fUnCWv5B75EP9$qy',#41,'596949|3dgU64fUnCWv5B75EP9$qy','Flow',#744,#392);
#748= IFCCARTESIANPOINT((-324.,0.,15.));
#750= IFCAXIS2PLACEMENT3D(#748,#13,#17);
#751= IFCLOCALPLACEMENT(#391,#750);
#752= IFCDISTRIBUTIONPORT('28cXBfKc53BhfvpROmpf$g',#41,'Port_596949','Flow',$,#751,$,.SOURCEANDSINK.);
#754= IFCRELCONNECTSPORTTOELEMENT('1DZtzN7Nz598B$$fZe_feL',#41,'596949|1DZtzN7Nz598B$$fZe_feL','Flow',#752,#392);
#756= IFCCARTESIANPOINT((324.,0.,15.));
#758= IFCAXIS2PLACEMENT3D(#756,#11,#15);
#759= IFCLOCALPLACEMENT(#391,#758);
#760= IFCDISTRIBUTIONPORT('3JnWg78OTFx9d$bcraH1XO',#41,'Port_596949','Flow',$,#759,$,.SOURCEANDSINK.);
#762= IFCRELCONNECTSPORTTOELEMENT('26YQCBGNv4sOoJbi21ttnR',#41,'596949|26YQCBGNv4sOoJbi21ttnR','Flow',#760,#392);
#764= IFCCARTESIANPOINT((-1000.,0.,15.));
#766= IFCAXIS2PLACEMENT3D(#764,#13,#17);
#767= IFCLOCALPLACEMENT(#482,#766);
#769= IFCDISTRIBUTIONPORT('3aLQ8ndAX34QMh__znBxZA',#41,'Port_596953','Flow',$,#767,$,.SOURCEANDSINK.);
#771= IFCRELCONNECTSPORTTOELEMENT('0tO6yeUzj4fuCjxTThVpjU',#41,'596953|0tO6yeUzj4fuCjxTThVpjU','Flow',#769,#483);
#774= IFCCARTESIANPOINT((0.,1000.,15.));
#776= IFCAXIS2PLACEMENT3D(#774,#15,#13);
#777= IFCLOCALPLACEMENT(#482,#776);
#778= IFCDISTRIBUTIONPORT('0e8NtdLAHCJxnJB_JUZAuZ',#41,'Port_596953','Flow',$,#777,$,.SOURCEANDSINK.);
#780= IFCRELCONNECTSPORTTOELEMENT('2zY0AwfOH5tejNR3viu_y7',#41,'596953|2zY0AwfOH5tejNR3viu_y7','Flow',#778,#483);
#782= IFCAXIS2PLACEMENT3D(#6,$,$);
#783= IFCLOCALPLACEMENT(#482,#782);
#784= IFCDISTRIBUTIONPORT('2QIwv_SGj3GQ78uULekecP',#41,'Port_596953','Flow',$,#783,$,.SOURCEANDSINK.);
#786= IFCRELCONNECTSPORTTOELEMENT('1C9Od6jX11MxkoZjqPo1SA',#41,'596953|1C9Od6jX11MxkoZjqPo1SA','Flow',#784,#483);
#788= IFCCARTESIANPOINT((1000.,0.,15.));
#790= IFCAXIS2PLACEMENT3D(#788,#11,#15);
#791= IFCLOCALPLACEMENT(#482,#790);
#792= IFCDISTRIBUTIONPORT('2JXbOWjNX6ze9NWscuRpOz',#41,'Port_596953','Flow',$,#791,$,.SOURCEANDSINK.);
#794= IFCRELCONNECTSPORTTOELEMENT('1KgixDNh1BaQ$iUqa7yPNt',#41,'596953|1KgixDNh1BaQ$iUqa7yPNt','Flow',#792,#483);
#796= IFCCARTESIANPOINT((0.,-1000.,15.));
#798= IFCAXIS2PLACEMENT3D(#796,#17,#11);
#799= IFCLOCALPLACEMENT(#482,#798);
#800= IFCDISTRIBUTIONPORT('17ooB_H9L38gEMLK2DsAPf',#41,'Port_596953','Flow',$,#799,$,.SOURCEANDSINK.);
#802= IFCRELCONNECTSPORTTOELEMENT('1wO6WYSrv0YOV9lHeGJV27',#41,'596953|1wO6WYSrv0YOV9lHeGJV27','Flow',#800,#483);
#804= IFCCARTESIANPOINT((0.,1000.,15.));
#806= IFCAXIS2PLACEMENT3D(#804,#15,#13);
#807= IFCLOCALPLACEMENT(#613,#806);
#809= IFCDISTRIBUTIONPORT('2Gan0FDXrBFuETv06ZJLHo',#41,'Port_596955','Flow',$,#807,$,.SOURCEANDSINK.);
#811= IFCRELCONNECTSPORTTOELEMENT('3xh4eHSZLCLRvXqVoknRzk',#41,'596955|3xh4eHSZLCLRvXqVoknRzk','Flow',#809,#614);
#814= IFCCARTESIANPOINT((1000.,0.,15.));
#816= IFCAXIS2PLACEMENT3D(#814,#11,#15);
#817= IFCLOCALPLACEMENT(#613,#816);
#818= IFCDISTRIBUTIONPORT('2cj7gxwTrC2QPNxUmvQBL9',#41,'Port_596955','Flow',$,#817,$,.SOURCEANDSINK.);
#820= IFCRELCONNECTSPORTTOELEMENT('3IQobH$RLDNwEh0Y$wAN0f',#41,'596955|3IQobH$RLDNwEh0Y$wAN0f','Flow',#818,#614);
#822= IFCCARTESIANPOINT((-1000.,0.,15.));
#824= IFCAXIS2PLACEMENT3D(#822,#13,#17);
#825= IFCLOCALPLACEMENT(#613,#824);
#826= IFCDISTRIBUTIONPORT('12zMMvuU17KR7J5ukNpo01',#41,'Port_596955','Flow',$,#825,$,.SOURCEANDSINK.);
#828= IFCRELCONNECTSPORTTOELEMENT('3wpmRnnAj5$hWRcTgieYca',#41,'596955|3wpmRnnAj5$hWRcTgieYca','Flow',#826,#614);
#830= IFCAXIS2PLACEMENT3D(#6,$,$);
#831= IFCLOCALPLACEMENT(#613,#830);
#832= IFCDISTRIBUTIONPORT('3bDx25bmPFthLycHGJ0Jc7',#41,'Port_596955','Flow',$,#831,$,.SOURCEANDSINK.);
#834= IFCRELCONNECTSPORTTOELEMENT('1_AXng70DEah6FzXuLuZCD',#41,'596955|1_AXng70DEah6FzXuLuZCD','Flow',#832,#614);
#836= IFCCARTESIANPOINT((0.,-1000.,15.));
#838= IFCAXIS2PLACEMENT3D(#836,#17,#11);
#839= IFCLOCALPLACEMENT(#613,#838);
#840= IFCDISTRIBUTIONPORT('3mVcY3KVj7YfQTivD8HCVl',#41,'Port_596955','Flow',$,#839,$,.SOURCEANDSINK.);
#842= IFCRELCONNECTSPORTTOELEMENT('2lxqQNjyL1CumiUVbvNGvv',#41,'596955|2lxqQNjyL1CumiUVbvNGvv','Flow',#840,#614);
#845= IFCPROPERTYSINGLEVALUE('AboveGround',$,IFCLOGICAL(.U.),$);
#846= IFCPROPERTYSET('3Zu5Bv0LOHrPC12_o6FoQQ',#41,'Pset_BuildingStoreyCommon',$,(#845));
#848= IFCRELDEFINESBYPROPERTIES('2g_OSSubT9OQGFW6eAPskc',#41,$,$,(#142),#846);
#852= IFCPROPERTYSINGLEVALUE('\X2\04240430044104300434\X0\',$,IFCLENGTHMEASURE(0.),$);
#853= IFCPROPERTYSINGLEVALUE('\X2\042004300441044704350442043D0430044F\X0\ \X2\0432044B0441043E04420430\X0\',$,IFCLENGTHMEASURE(0.),$);
#854= IFCPROPERTYSINGLEVALUE('\X2\0418043C044F\X0\',$,IFCTEXT('\X2\04230440043E04320435043D044C\X0\ 1'),$);
#855= IFCPROPERTYSINGLEVALUE('\X2\041D043504410443044904380435\X0\ \X2\043A043E043D0441044204400443043A044604380438\X0\',$,IFCBOOLEAN(.F.),$);
#856= IFCPROPERTYSINGLEVALUE('\X2\041F043E044104420440043E0435043D04380435\X0\ \X2\044D0442043004360430\X0\',$,IFCBOOLEAN(.T.),$);
#857= IFCPROPERTYSINGLEVALUE('\X2\041A0430044204350433043E04400438044F\X0\',$,IFCLABEL('\X2\04230440043E0432043D0438\X0\'),$);
#858= IFCPROPERTYSINGLEVALUE('\X2\041A043E0434\X0\ \X2\04420438043F0430\X0\',$,IFCLABEL('\X2\04230440043E04320435043D044C\X0\: \X2\0412043504400445043D04380439\X0\ \X2\0431044004430441\X0\ 8\X2\043C043C\X0\'),$);
#859= IFCPROPERTYSINGLEVALUE('\X2\04210435043C04350439044104420432043E\X0\',$,IFCLABEL('\X2\04230440043E04320435043D044C\X0\: \X2\0412043504400445043D04380439\X0\ \X2\0431044004430441\X0\ 8\X2\043C043C\X0\'),$);
#860= IFCPROPERTYSINGLEVALUE('\X2\04210435043C04350439044104420432043E\X0\ \X2\0438\X0\ \X2\04420438043F043E044004300437043C04350440\X0\',$,IFCLABEL('\X2\04230440043E04320435043D044C\X0\: \X2\0412043504400445043D04380439\X0\ \X2\0431044004430441\X0\ 8\X2\043C043C\X0\'),$);
#861= IFCPROPERTYSINGLEVALUE('\X2\04220438043F\X0\',$,IFCLABEL('\X2\04230440043E04320435043D044C\X0\: \X2\0412043504400445043D04380439\X0\ \X2\0431044004430441\X0\ 8\X2\043C043C\X0\'),$);
#862= IFCPROPERTYSINGLEVALUE('\X2\041104300437043E04320430044F\X0\ \X2\043E0442043C04350442043A0430\X0\',$,IFCIDENTIFIER('\X2\041104300437043E04320430044F\X0\ \X2\0442043E0447043A0430\X0\ \X2\043F0440043E0435043A04420430\X0\'),$);
#863= IFCPROPERTYSINGLEVALUE('\X2\041204350441\X0\ \X2\043B0438043D04380439\X0\',$,IFCIDENTIFIER('1'),$);
#864= IFCPROPERTYSINGLEVALUE('\X2\041E0431043E0437043D043004470435043D04380435\X0\',$,IFCLABEL('M_\X2\041704300433043E043B043E0432043E043A\X0\ \X2\04430440043E0432043D044F\X0\ - \X2\041E043A044004430436043D043E04410442044C\X0\: M_\X2\041704300433043E043B043E0432043E043A\X0\ \X2\04430440043E0432043D044F\X0\ - \X2\041E043A044004430436043D043E04410442044C\X0\'),$);
#865= IFCPROPERTYSINGLEVALUE('\X2\041E043104400430043704350446\X0\ \X2\043B0438043D04380439\X0\',$,IFCLABEL('\X2\04260435043D04420440\X0\'),$);
#866= IFCPROPERTYSINGLEVALUE('\X2\042104420430043D0434043004400442043D043E0435\X0\ \X2\043E0431043E0437043D043004470435043D04380435\X0\ \X2\04320442043E0440043E0433043E\X0\ \X2\043A043E043D04460430\X0\',$,IFCBOOLEAN(.T.),$);
#867= IFCPROPERTYSINGLEVALUE('\X2\042104420430043D0434043004400442043D043E0435\X0\ \X2\043E0431043E0437043D043004470435043D04380435\X0\ \X2\043F043504400432043E0433043E\X0\ \X2\043A043E043D04460430\X0\',$,IFCBOOLEAN(.F.),$);
#868= IFCPROPERTYSINGLEVALUE('\X2\0426043204350442\X0\',$,IFCINTEGER(0),$);
#869= IFCPROPERTYSINGLEVALUE('\X2\0418043C044F\X0\ \X2\04420438043F0430\X0\',$,IFCTEXT('\X2\0412043504400445043D04380439\X0\ \X2\0431044004430441\X0\ 8\X2\043C043C\X0\'),$);
#870= IFCPROPERTYSINGLEVALUE('\X2\0418043C044F\X0\ \X2\04410435043C043504390441044204320430\X0\',$,IFCTEXT('\X2\04230440043E04320435043D044C\X0\'),$);
#871= IFCPROPERTYSET('3Zu5Bv0LOHrPC11XI6FoQQ',#41,'\X2\041704300432043804410438043C043E044104420438\X0\',$,(#852));
#873= IFCRELDEFINESBYPROPERTIES('3Zu5Bv0LOHrPC11nI6FoQQ',#41,$,$,(#142),#871);
#876= IFCPROPERTYSET('3Zu5Bv0LOHrPC11W66FoQQ',#41,'\X2\041804340435043D0442043804440438043A043004460438044F\X0\',$,(#854,#855,#856));
#878= IFCRELDEFINESBYPROPERTIES('3Zu5Bv0LOHrPC11m66FoQQ',#41,$,$,(#142),#876);
#881= IFCPROPERTYSET('3vB4JYnPb0Zxt9PuolQoqW',#41,'\X2\041F0440043E044704350435\X0\',$,(#857,#858,#859,#860,#861));
#883= IFCRELDEFINESBYPROPERTIES('3pr55nzjLB7eg_E9BuZ_kj',#41,$,$,(#142),#881);
#886= IFCPROPERTYSET('3Zu5Bv0LOHrPC11WA6FoQQ',#41,'\X2\042004300437043C04350440044B\X0\',$,(#853));
#888= IFCRELDEFINESBYPROPERTIES('3Zu5Bv0LOHrPC11mA6FoQQ',#41,$,$,(#142),#886);
#891= IFCPROPERTYSET('3Zu5Bv0LOHrPC11WM6FoQS',#41,'\X2\04130440043004440438043A0430\X0\(Type)',$,(#863,#864,#865,#866,#867,#868));
#893= IFCPROPERTYSET('3Zu5Bv0LOHrPC11XI6FoQS',#41,'\X2\041704300432043804410438043C043E044104420438\X0\(Type)',$,(#862));
#895= IFCPROPERTYSET('3Zu5Bv0LOHrPC11W66FoQS',#41,'\X2\041804340435043D0442043804440438043A043004460438044F\X0\(Type)',$,(#869));
#897= IFCPROPERTYSET('1IAjliFOb6KQkmt1ZwURwK',#41,'\X2\041F0440043E044704350435\X0\(Type)',$,(#857,#870));
#906= IFCRELAGGREGATES('2gTgHm7zD6zeol6NvGFq$O',#41,$,$,#123,(#152));
#910= IFCRELAGGREGATES('3FvFI2vzvCmfPXNFzNCt$m',#41,$,$,#152,(#133));
#914= IFCRELAGGREGATES('27PCKGLxT4mxtV9cw6mgBW',#41,$,$,#133,(#142));
#918= IFCPROPERTYSINGLEVALUE('NumberOfStoreys',$,IFCINTEGER(1),$);
#919= IFCPROPERTYSINGLEVALUE('IsLandmarked',$,IFCLOGICAL(.U.),$);
#920= IFCPROPERTYSET('27PCKGLxT4mxtVBOQ6mgBW',#41,'Pset_BuildingCommon',$,(#918,#919));
#922= IFCRELDEFINESBYPROPERTIES('3BVxz9n4T1aw2KWr5x4qIx',#41,$,$,(#133),#920);
#926= IFCPROPERTYSINGLEVALUE('\X2\04100434044004350441\X0\ \X2\043F0440043E0435043A04420430\X0\',$,IFCTEXT('\X2\0423043A04300436043804420435\X0\ \X2\04300434044004350441\X0\'),$);
#927= IFCPROPERTYSINGLEVALUE('\X2\0414043004420430\X0\ \X2\04430442043204350440043604340435043D0438044F\X0\ \X2\043F0440043E0435043A04420430\X0\',$,IFCTEXT('\X2\0414043004420430\X0\ \X2\0432044B043F04430441043A0430\X0\'),$);
#928= IFCPROPERTYSINGLEVALUE('\X2\04170430043A0430043704470438043A\X0\',$,IFCTEXT('\X2\0412043B043004340435043B04350446\X0\'),$);
#929= IFCPROPERTYSINGLEVALUE('\X2\041D04300438043C0435043D043E04320430043D04380435\X0\ \X2\043F0440043E0435043A04420430\X0\',$,IFCTEXT('\X2\041D04300438043C0435043D043E04320430043D04380435\X0\ \X2\043F0440043E0435043A04420430\X0\'),$);
#930= IFCPROPERTYSINGLEVALUE('\X2\041D043E043C04350440\X0\ \X2\043F0440043E0435043A04420430\X0\',$,IFCTEXT('\X2\041D043E043C04350440\X0\ \X2\043F0440043E0435043A04420430\X0\'),$);
#931= IFCPROPERTYSINGLEVALUE('\X2\042104420430044204430441\X0\ \X2\043F0440043E0435043A04420430\X0\',$,IFCTEXT('\X2\042104420430044204430441\X0\ \X2\043F0440043E0435043A04420430\X0\'),$);
#932= IFCPROPERTYSET('1cf15$b4j3Hfib8fsZnZbH',#41,'\X2\041804340435043D0442043804440438043A043004460438044F\X0\',$,(#156,#157,#158,#159));
#934= IFCRELDEFINESBYPROPERTIES('15wf49krf2j8JnGlAqNlJb',#41,$,$,(#133),#932);
#937= IFCPROPERTYSET('3K9XqVeW54b98kJmPyQFLS',#41,'\X2\041F0440043E044704350435\X0\',$,(#163,#926,#927,#928,#929,#930,#931));
#939= IFCRELDEFINESBYPROPERTIES('2KjoxyaGnBoevStW6u$wxP',#41,$,$,(#133),#937);
#942= IFCRELASSOCIATESMATERIAL('0BO9I8deT7cxGs8kKiu67B',#41,$,$,(#195,#221,#392,#471,#483,#614),#198);
#950= IFCRELDEFINESBYTYPE('1a7MaCn5L9rRJGgGF3Y2m3',#41,$,$,(#221,#392),#195);
#953= IFCRELDEFINESBYTYPE('1Is9lj7lPBbxULdvljPkbo',#41,$,$,(#483,#614),#471);
#956= IFCRELDEFINESBYPROPERTIES('3hm3tQQhj2Ch10C$LxEdhM',#41,$,$,(#142),#891);
ENDSEC;

END-ISO-10303-21;
